# xmcd
#
# Track frame offsets:
#	150
#	11141
#	26708
#	36347
#	46998
#	60313
#	67784
#	77729
#	88077
#	97297
#	110391
#
# Disc length: 1606 seconds
#
# Revision: 1
# Processed by: cddbd v1.5.2PL0 Copyright (c) Steve Scherf et al.
# Submitted via: audiograbber 1.83.01
#
DISCID=8a06440b
DTITLE=Nascar - Truckin' Songs
DYEAR=1967
DGENRE=Country
TTITLE0=Big Daddy
TTITLE1=Ninety Nine Bottles Of Beer
TTITLE2=Six Days On The Road
TTITLE3=Let The Good Times Roll
TTITLE4=Butterbeans
TTITLE5=Hey, Good Lookin'
TTITLE6=Watch Out For The Matador
TTITLE7=When The Saints Go Marching In
TTITLE8=Mabelline
TTITLE9=I Can Help
TTITLE10=King Of The Road
EXTD=
EXTT0=
EXTT1=
EXTT2=
EXTT3=
EXTT4=
EXTT5=
EXTT6=
EXTT7=
EXTT8=
EXTT9=
EXTT10=
PLAYORDER=
